<?xml version="1.0" encoding="UTF-8" standalone="no"?>
<!-- Created with Inkscape (http://www.inkscape.org/) -->

<svg
   xmlns:dc="http://purl.org/dc/elements/1.1/"
   xmlns:cc="http://creativecommons.org/ns#"
   xmlns:rdf="http://www.w3.org/1999/02/22-rdf-syntax-ns#"
   xmlns:svg="http://www.w3.org/2000/svg"
   xmlns="http://www.w3.org/2000/svg"
   xmlns:sodipodi="http://sodipodi.sourceforge.net/DTD/sodipodi-0.dtd"
   xmlns:inkscape="http://www.inkscape.org/namespaces/inkscape"
   width="29cm"
   height="21cm"
   viewBox="0 0 290 209.99999"
   version="1.1"
   id="svg4374"
   inkscape:version="0.92.0 r15299"
   sodipodi:docname="4 imagen.svg">
  <defs
     id="defs4368" />
  <sodipodi:namedview
     id="base"
     pagecolor="#ffffff"
     bordercolor="#666666"
     borderopacity="1.0"
     inkscape:pageopacity="0.0"
     inkscape:pageshadow="2"
     inkscape:zoom="0.32138607"
     inkscape:cx="403.37815"
     inkscape:cy="465.04105"
     inkscape:document-units="mm"
     inkscape:current-layer="g3305-6-9"
     showgrid="false"
     units="cm"
     inkscape:window-width="1024"
     inkscape:window-height="538"
     inkscape:window-x="-8"
     inkscape:window-y="-8"
     inkscape:window-maximized="1" />
  <metadata
     id="metadata4371">
    <rdf:RDF>
      <cc:Work
         rdf:about="">
        <dc:format>image/svg+xml</dc:format>
        <dc:type
           rdf:resource="http://purl.org/dc/dcmitype/StillImage" />
        <dc:title></dc:title>
      </cc:Work>
    </rdf:RDF>
  </metadata>
  <g
     inkscape:label="Layer 1"
     inkscape:groupmode="layer"
     id="layer1"
     transform="translate(0,-87.000015)">
    <circle
       style="opacity:0.8;fill:#00ff00;fill-opacity:1;stroke:#000000;stroke-width:1.02100003;stroke-miterlimit:4;stroke-dasharray:none;stroke-opacity:1"
       id="path2074-4"
       cx="79.508881"
       cy="228.53532"
       r="55.184525" />
    <circle
       style="opacity:0.8;fill:#00ffff;fill-opacity:1;stroke:#000000;stroke-width:1.02100003;stroke-miterlimit:4;stroke-dasharray:none;stroke-opacity:1"
       id="path2078-1"
       cx="80.047241"
       cy="228.33855"
       r="50.270832" />
    <path
       style="fill:#ffcc00;stroke:#000000;stroke-width:1.37477541;stroke-linecap:butt;stroke-linejoin:miter;stroke-miterlimit:4;stroke-dasharray:none;stroke-opacity:1"
       d="m 59.232254,273.17089 c -5.53777,-3.36625 11.69456,-18.88888 11.69456,-18.88888 l 21.26338,0.55008 c 0,0 18.621256,11.76127 14.314896,15.30898 -11.751706,9.68138 -34.472556,10.81076 -47.272836,3.02982 z"
       id="path1183-41-3"
       inkscape:connector-curvature="0"
       sodipodi:nodetypes="sccss" />
    <g
       id="g3305-6-9"
       transform="matrix(1.6602175,0,0,1.5879695,-149.34749,-84.159073)">
      <path
         sodipodi:nodetypes="cc"
         inkscape:connector-curvature="0"
         id="path1008-4-9-9"
         d="m 153.43599,220.53569 c 10.52539,-7.41044 23.67053,-34.73906 24.37636,-41.59823"
         style="fill:none;stroke:#000000;stroke-width:1.1586802;stroke-linecap:butt;stroke-linejoin:miter;stroke-miterlimit:4;stroke-dasharray:none;stroke-opacity:1" />
      <g
         style="fill:#ffcc00"
         id="g1166-8-8-6"
         transform="translate(89.832647,16.731842)">
        <circle
           style="opacity:1;fill:#ffcc00;fill-opacity:1;stroke:#000000;stroke-width:1.39999998;stroke-miterlimit:4;stroke-dasharray:none;stroke-opacity:1"
           id="path915-8-3-3"
           cx="48.380955"
           cy="183.60716"
           r="22.678572" />
        <path
           style="fill:#ffdd55;stroke:#000000;stroke-width:0.96499997;stroke-linecap:butt;stroke-linejoin:miter;stroke-miterlimit:4;stroke-dasharray:none;stroke-opacity:1"
           d="m 57.765561,162.5161 c 0.03339,0.51594 -1.163773,0.30164 -0.538723,-0.36114 2.287046,-2.4251 9.304029,-10.85451 11.888807,-11.48572 5.663104,-1.38295 -2.699829,18.33724 -2.699829,18.33724 z"
           id="path965-9-5-4"
           inkscape:connector-curvature="0"
           sodipodi:nodetypes="csscc" />
        <path
           style="fill:#ffdd55;stroke:#000000;stroke-width:0.96499997;stroke-linecap:butt;stroke-linejoin:miter;stroke-miterlimit:4;stroke-dasharray:none;stroke-opacity:1"
           d="m 28.596597,171.18794 c 0,0 -8.957367,-15.27545 -4.298128,-17.27891 2.191382,-0.94229 10.000723,13.46566 11.339286,10.78853 z"
           id="path967-5-1-2"
           inkscape:connector-curvature="0"
           sodipodi:nodetypes="cscc" />
        <path
           style="fill:#ffaaaa;stroke:#000000;stroke-width:0.96499997;stroke-linecap:butt;stroke-linejoin:miter;stroke-miterlimit:4;stroke-dasharray:none;stroke-opacity:1"
           d="m 43.737244,186.85775 9.719389,-0.0108 -5.399662,7.55952 z"
           id="path969-3-8-7"
           inkscape:connector-curvature="0"
           sodipodi:nodetypes="cccc" />
        <path
           style="fill:#ffcc00;stroke:#000000;stroke-width:0.91643888;stroke-linecap:butt;stroke-linejoin:miter;stroke-miterlimit:4;stroke-dasharray:none;stroke-opacity:1"
           d="m 48.056961,194.40505 -0.01078,3.97128"
           id="path1002-3-2-6"
           inkscape:connector-curvature="0"
           sodipodi:nodetypes="cc" />
      </g>
      <path
         inkscape:connector-curvature="0"
         id="path1177-0-8-2"
         d="m 114.74027,170.28104 14.02509,8.72926 -4.53924,2.56058 z"
         style="fill:#000000;stroke:#000000;stroke-width:0.26458332px;stroke-linecap:butt;stroke-linejoin:miter;stroke-opacity:1" />
      <path
         sodipodi:nodetypes="cccc"
         inkscape:connector-curvature="0"
         id="path1179-4-7-5"
         d="m 158.97941,167.13851 -17.18918,10.30052 4.22069,1.80892 z"
         style="fill:#000000;stroke:#000000;stroke-width:0.26458332px;stroke-linecap:butt;stroke-linejoin:miter;stroke-opacity:1" />
      <path
         sodipodi:nodetypes="ccccsscccsccccscccc"
         inkscape:connector-curvature="0"
         id="path946-2-4-5-7"
         d="m 128.13818,180.33725 c 1.37289,-1.00683 4.95669,-2.4734 7.20349,-2.9478 28.1712,3.03992 18.46294,14.31157 12.94251,8.10183 -0.38953,0.4483 -5.03245,-6.6909 -4.91909,-5.71417 0.13897,1.19689 -0.8475,1.29567 -2.10242,1.50464 -0.39136,0.0652 -0.88101,0.2879 -1.0881,0.49501 -0.34245,0.34242 -0.36491,0.52514 -0.24824,2.01767 0.15037,1.92205 -0.0265,2.44618 -0.82182,2.44618 -0.66337,0 -1.37679,-0.76473 -1.71319,-1.83641 -0.31999,-1.01938 -0.87844,-1.46079 -2.05236,-1.62223 -1.00986,-0.13897 -1.60395,-0.61109 -2.4368,-1.93683 -0.56421,-0.89809 -1.3587,-1.20678 -2.38009,-0.92477 -1.21427,0.33527 -1.72941,1.24829 -1.72941,3.06505 0,0.62282 -0.0878,0.85842 -0.3778,1.01363 -0.20794,0.11112 -0.45634,0.15356 -0.55233,0.0944 -0.32346,-0.19997 -1.11221,0.12466 -1.23378,0.50772 -0.0727,0.22915 0.0509,0.74636 0.31163,1.30279 0.48754,1.04094 0.35538,1.55205 -0.40128,1.55205 -3.88956,-5.19754 -10.5294,1.60698 1.59908,-7.11876 z"
         style="fill:#000000;stroke-width:0.18697168" />
      <path
         inkscape:connector-curvature="0"
         id="path1201-0-8-9"
         d="m 139.78609,178.53505 c 0,0 -3.47933,0.37279 0,0 z"
         style="fill:none;stroke:#000000;stroke-width:0.26458332px;stroke-linecap:butt;stroke-linejoin:miter;stroke-opacity:1" />
      <path
         sodipodi:nodetypes="ccsscccccc"
         inkscape:connector-curvature="0"
         id="path946-73-1-0-8"
         d="m 160.40884,205.27435 c -0.49456,-0.32881 -0.66658,-0.33964 -1.6207,-0.10193 -1.16918,0.29134 -1.1314,0.31401 -1.49962,-0.90374 -0.11486,-0.37977 -0.39853,-0.83681 -0.63049,-1.01561 -0.38351,-0.2957 -0.56761,-0.29455 -2.03284,0.0126 -1.88688,0.39568 -2.42937,0.28749 -2.53139,-0.50126 -0.0851,-0.65789 0.58181,-1.46351 1.60149,-1.9346 0.96991,-0.4481 1.33605,-1.05856 1.34557,-2.24349 1.53187,-2.32766 4.24432,0.0946 5.34836,-0.68872 z"
         style="fill:#000000;stroke-width:0.18697168" />
      <path
         sodipodi:nodetypes="ccsscccccc"
         inkscape:connector-curvature="0"
         id="path946-6-4-5-6"
         d="m 114.86721,198.01527 c 0.51355,0.29828 0.68591,0.29868 1.62392,0.004 1.1494,-0.36156 1.11032,-0.3819 1.55156,0.81134 0.13763,0.37212 0.44843,0.81115 0.69079,0.9756 0.4007,0.27195 0.58439,0.25965 2.02836,-0.1356 1.8595,-0.50914 2.40754,-0.43398 2.55711,0.34715 0.12475,0.65154 -0.49219,1.49604 -1.4815,2.02797 -0.94103,0.50598 -1.26955,1.13747 -1.20736,2.32081 -1.3882,2.41609 -4.24228,0.1624 -5.2969,1.01111 z"
         style="fill:#000000;stroke-width:0.18697168" />
      <path
         sodipodi:nodetypes="cc"
         inkscape:connector-curvature="0"
         id="path1336-8-5-4"
         d="m 132.75451,194.8604 2.40309,8.7292"
         style="fill:none;stroke:#000000;stroke-width:0.26458332px;stroke-linecap:butt;stroke-linejoin:miter;stroke-opacity:1" />
      <path
         sodipodi:nodetypes="cc"
         inkscape:connector-curvature="0"
         id="path1336-5-0-7-6"
         d="m 142.87863,194.88213 -2.76414,8.69667"
         style="fill:none;stroke:#000000;stroke-width:0.26458332px;stroke-linecap:butt;stroke-linejoin:miter;stroke-opacity:1" />
      <path
         sodipodi:nodetypes="cc"
         inkscape:connector-curvature="0"
         id="path1336-5-2-2-8-4"
         d="m 146.47909,211.59621 -5.61345,-0.65868"
         style="fill:none;stroke:#000000;stroke-width:0.13001314px;stroke-linecap:butt;stroke-linejoin:miter;stroke-opacity:1" />
      <path
         sodipodi:nodetypes="cc"
         inkscape:connector-curvature="0"
         id="path1336-5-2-6-4-1-4"
         d="m 145.48557,213.47461 -4.61118,-1.66674"
         style="fill:none;stroke:#000000;stroke-width:0.11071861px;stroke-linecap:butt;stroke-linejoin:miter;stroke-opacity:1" />
      <path
         sodipodi:nodetypes="cc"
         inkscape:connector-curvature="0"
         id="path1336-5-2-6-3-2-3-7"
         d="m 146.24484,209.25509 -5.3792,1.15327"
         style="fill:#ffeeaa;stroke:#000000;stroke-width:0.11577979px;stroke-linecap:butt;stroke-linejoin:miter;stroke-opacity:1" />
      <path
         sodipodi:nodetypes="cc"
         inkscape:connector-curvature="0"
         id="path1336-5-2-6-3-0-2-7-4"
         d="m 134.48584,210.30965 -3.49692,-1.32988"
         style="fill:none;stroke:#000000;stroke-width:0.09987567px;stroke-linecap:butt;stroke-linejoin:miter;stroke-opacity:1" />
      <path
         sodipodi:nodetypes="cc"
         inkscape:connector-curvature="0"
         id="path1336-5-2-6-3-0-0-0-5-5-9"
         d="m 134.2991,211.08269 -5.75298,-0.0711"
         style="fill:none;stroke:#000000;stroke-width:0.12033805px;stroke-linecap:butt;stroke-linejoin:miter;stroke-opacity:1" />
      <path
         sodipodi:nodetypes="cc"
         inkscape:connector-curvature="0"
         id="path1336-5-2-6-3-0-0-0-3-9-1-3"
         d="m 134.66682,211.69405 -5.61363,1.26056"
         style="fill:#ffeeaa;stroke:#000000;stroke-width:0.12033805px;stroke-linecap:butt;stroke-linejoin:miter;stroke-opacity:1" />
      <path
         inkscape:connector-curvature="0"
         id="path148-6-3-6"
         d="m 129.77746,190.03952 -4.48634,0.21448 -0.75502,1.52168 z"
         style="fill:#000000;stroke:#000000;stroke-width:0.10807703px;stroke-linecap:butt;stroke-linejoin:miter;stroke-opacity:1" />
      <path
         inkscape:connector-curvature="0"
         id="path148-4-5-5-4"
         d="m 145.22172,189.47615 4.99208,0.30897 0.85811,1.66914 z"
         style="fill:#000000;stroke:#000000;stroke-width:0.11890645px;stroke-linecap:butt;stroke-linejoin:miter;stroke-opacity:1" />
      <g
         transform="matrix(-1,0,0,1,262.071,30.787149)"
         id="g2621-0-6">
        <circle
           style="opacity:1;fill:#000000;fill-opacity:1;stroke:#000000;stroke-width:0.96499997;stroke-miterlimit:4;stroke-dasharray:none;stroke-opacity:1"
           id="path1053-5-1-7"
           cx="163.45638"
           cy="153.40283"
           r="2.3558791" />
        <path
           style="fill:none;stroke:#000000;stroke-width:0.96499997;stroke-linecap:butt;stroke-linejoin:miter;stroke-miterlimit:4;stroke-dasharray:none;stroke-opacity:1"
           d="m 162.82919,154.82072 c 3.97955,-3.56911 -8.36313,26.76685 -26.09425,36.57685"
           id="path1008-4-1-8-6-1"
           inkscape:connector-curvature="0"
           sodipodi:nodetypes="cc" />
      </g>
      <circle
         r="2.3558791"
         cy="178.82901"
         cx="178.22885"
         id="path1053-5-2-5-9"
         style="opacity:1;fill:#000000;fill-opacity:1;stroke:#000000;stroke-width:0.96499997;stroke-miterlimit:4;stroke-dasharray:none;stroke-opacity:1" />
      <path
         sodipodi:nodetypes="cc"
         inkscape:connector-curvature="0"
         id="path1008-4-16-1-3"
         d="m 127.08121,212.33776 c 4.18761,5.01364 20.41891,3.24351 20.58953,-1.13796"
         style="fill:none;stroke:#000000;stroke-width:1.26317084;stroke-linecap:butt;stroke-linejoin:miter;stroke-miterlimit:4;stroke-dasharray:none;stroke-opacity:1" />
      <path
         sodipodi:nodetypes="cc"
         inkscape:connector-curvature="0"
         id="path1008-4-16-1-3-5"
         d="m 132.86101,215.20973 c 3.72277,5.81722 8.12872,4.02851 9.58501,-0.26928"
         style="fill:#ff0000;fill-opacity:1;stroke:#000000;stroke-width:1.44793499;stroke-linecap:butt;stroke-linejoin:miter;stroke-miterlimit:4;stroke-dasharray:none;stroke-opacity:1" />
      <path
         inkscape:connector-curvature="0"
         id="path148-6-3-6-2"
         d="m 132.82645,195.06462 -5.67554,0.5101 -0.95515,3.61888 z"
         style="fill:#000000;stroke:#000000;stroke-width:0.18746364px;stroke-linecap:butt;stroke-linejoin:miter;stroke-opacity:1" />
      <path
         inkscape:connector-curvature="0"
         id="path148-6-3-6-2-7"
         d="m 142.5599,194.88213 6.26222,0.47598 1.05389,3.3768 z"
         style="fill:#000000;stroke:#000000;stroke-width:0.19021454px;stroke-linecap:butt;stroke-linejoin:miter;stroke-opacity:1" />
      <path
         style="fill:#f9f9f9;fill-opacity:1;stroke:#000000;stroke-width:1.51599038;stroke-linecap:butt;stroke-linejoin:miter;stroke-miterlimit:4;stroke-dasharray:none;stroke-opacity:1"
         d="m 167.02005,170.1004 c 0,0 14.36014,-12.73063 15.14777,-15.86678 6.60743,-39.34151 81.45984,-26.8475 77.48705,-2.98476 -0.81196,19.62182 -71.75547,21.30126 -72.9227,9.67802 -0.83389,-2.75199 -19.71212,9.17352 -19.71212,9.17352 z"
         id="path94-9"
         inkscape:connector-curvature="0"
         sodipodi:nodetypes="ccccc" />
      <text
         xml:space="preserve"
         style="font-style:normal;font-variant:normal;font-weight:normal;font-stretch:normal;font-size:8.63973331px;line-height:1.25;font-family:'Berlin Sans FB';-inkscape-font-specification:'Berlin Sans FB';letter-spacing:0px;word-spacing:0px;display:inline;fill:#000000;fill-opacity:1;stroke:none;stroke-width:0.21599327"
         x="187.81381"
         y="151.0071"
         id="text4963-6"
         transform="scale(1.0292937,0.97154)"><tspan
           sodipodi:role="line"
           x="187.81381"
           y="151.0071"
           style="font-style:normal;font-variant:normal;font-weight:bold;font-stretch:normal;font-size:9.69294071px;font-family:'Tw Cen MT';-inkscape-font-specification:'Tw Cen MT Bold';stroke-width:0.21599327"
           id="tspan1573-0">¡Ahora ponte </tspan><tspan
           sodipodi:role="line"
           x="187.81381"
           y="163.12328"
           style="font-style:normal;font-variant:normal;font-weight:bold;font-stretch:normal;font-size:9.69294071px;font-family:'Tw Cen MT';-inkscape-font-specification:'Tw Cen MT Bold';stroke-width:0.21599327"
           id="tspan1346">en práctica!</tspan></text>
    </g>
  </g>
</svg>
