<?xml version="1.0" encoding="UTF-8" standalone="no"?>
<!-- Created with Inkscape (http://www.inkscape.org/) -->

<svg
   xmlns:dc="http://purl.org/dc/elements/1.1/"
   xmlns:cc="http://creativecommons.org/ns#"
   xmlns:rdf="http://www.w3.org/1999/02/22-rdf-syntax-ns#"
   xmlns:svg="http://www.w3.org/2000/svg"
   xmlns="http://www.w3.org/2000/svg"
   xmlns:sodipodi="http://sodipodi.sourceforge.net/DTD/sodipodi-0.dtd"
   xmlns:inkscape="http://www.inkscape.org/namespaces/inkscape"
   width="29cm"
   height="21cm"
   viewBox="0 0 290 209.99999"
   version="1.1"
   id="svg4288"
   inkscape:version="0.92.0 r15299"
   sodipodi:docname="que hacemos.svg">
  <defs
     id="defs4282" />
  <sodipodi:namedview
     id="base"
     pagecolor="#ffffff"
     bordercolor="#666666"
     borderopacity="1.0"
     inkscape:pageopacity="0.0"
     inkscape:pageshadow="2"
     inkscape:zoom="0.40664087"
     inkscape:cx="403.42435"
     inkscape:cy="396.85039"
     inkscape:document-units="mm"
     inkscape:current-layer="layer1"
     showgrid="false"
     units="cm"
     inkscape:window-width="1024"
     inkscape:window-height="538"
     inkscape:window-x="-8"
     inkscape:window-y="-8"
     inkscape:window-maximized="1" />
  <metadata
     id="metadata4285">
    <rdf:RDF>
      <cc:Work
         rdf:about="">
        <dc:format>image/svg+xml</dc:format>
        <dc:type
           rdf:resource="http://purl.org/dc/dcmitype/StillImage" />
        <dc:title></dc:title>
      </cc:Work>
    </rdf:RDF>
  </metadata>
  <g
     inkscape:label="Layer 1"
     inkscape:groupmode="layer"
     id="layer1"
     transform="translate(0,-87.000015)">
    <circle
       style="opacity:0.8;fill:#00ff00;fill-opacity:1;stroke:#000000;stroke-width:1.33716416;stroke-miterlimit:4;stroke-dasharray:none;stroke-opacity:1"
       id="path2074"
       cx="76.185486"
       cy="212.05467"
       r="72.273033" />
    <circle
       style="opacity:0.8;fill:#00ffff;fill-opacity:1;stroke:#000000;stroke-width:1.33716416;stroke-miterlimit:4;stroke-dasharray:none;stroke-opacity:1"
       id="path2078"
       cx="75.838242"
       cy="212.5497"
       r="65.837761" />
    <path
       style="fill:#ffcc00;stroke:#000000;stroke-width:1.84747338;stroke-linecap:butt;stroke-linejoin:miter;stroke-miterlimit:4;stroke-dasharray:none;stroke-opacity:1"
       d="m 57.284681,274.83801 c -7.913668,-1.73475 5.076548,-34.33024 5.076548,-34.33024 l 26.417061,0.79959 c 0,0 19.26781,27.17166 12.79933,30.08707 -14.764322,6.65441 -29.52863,6.68008 -44.292939,3.44358 z"
       id="path1183-41"
       inkscape:connector-curvature="0"
       sodipodi:nodetypes="sccss" />
    <path
       style="fill:#000000;stroke-width:0.24689767"
       d="m 101.57614,266.5307 c -0.74187,-0.26418 -0.96709,-0.22406 -2.121796,0.37844 -1.414946,0.73839 -1.359056,0.75547 -2.220006,-0.68207 -0.26851,-0.44831 -0.77918,-0.94219 -1.13496,-1.09749 -0.58823,-0.25678 -0.82519,-0.19753 -2.61683,0.65389 -2.307156,1.09661 -3.040874,1.12883 -3.422558,0.15493 -0.318354,-0.81238 0.285954,-2.04907 1.451159,-2.96973 1.108329,-0.87582 1.386759,-1.76924 1.023219,-3.28341 1.23676,-3.44917 5.50198,-1.21093 6.67693,-2.55633 z"
       id="path946-7-5-6-1"
       inkscape:connector-curvature="0"
       sodipodi:nodetypes="ccsscccccc" />
    <path
       style="fill:#000000;stroke-width:0.20401137"
       d="m 56.206607,256.84736 c 0.5485,0.34743 0.737235,0.35583 1.778219,0.0791 1.275596,-0.33926 1.233753,-0.36312 1.661318,0.95214 0.133428,0.41017 0.453287,0.90097 0.711029,1.09064 0.42615,0.31363 0.62789,0.30876 2.227667,-0.0535 2.060111,-0.46659 2.656792,-0.35969 2.784144,0.49488 0.106216,0.71279 -0.608757,1.60074 -1.716992,2.13226 -1.054133,0.5056 -1.443352,1.17569 -1.430425,2.46273 -1.632925,2.55773 -4.653423,-0.0198 -5.847939,0.85249 z"
       id="path946-9-8-3-8"
       inkscape:connector-curvature="0"
       sodipodi:nodetypes="ccsscccccc" />
    <path
       sodipodi:nodetypes="cc"
       inkscape:connector-curvature="0"
       id="path1008-4-9"
       d="m 101.57614,266.5307 c 24.35848,-16.97155 25.75208,-31.10545 27.38556,-46.81446"
       style="fill:none;stroke:#000000;stroke-width:1.51722455;stroke-linecap:butt;stroke-linejoin:miter;stroke-miterlimit:4;stroke-dasharray:none;stroke-opacity:1" />
    <g
       style="fill:#ffcc00"
       id="g1166-8-8"
       transform="matrix(1.6076221,0,0,1.5376628,-0.69057744,-61.216666)">
      <circle
         style="opacity:1;fill:#ffcc00;fill-opacity:1;stroke:#000000;stroke-width:1.39999998;stroke-miterlimit:4;stroke-dasharray:none;stroke-opacity:1"
         id="path915-8-3"
         cx="48.380955"
         cy="183.60716"
         r="22.678572" />
      <path
         style="fill:#ffdd55;stroke:#000000;stroke-width:0.96499997;stroke-linecap:butt;stroke-linejoin:miter;stroke-miterlimit:4;stroke-dasharray:none;stroke-opacity:1"
         d="m 57.765561,162.5161 c 0.03339,0.51594 -1.163773,0.30164 -0.538723,-0.36114 2.287046,-2.4251 9.304029,-10.85451 11.888807,-11.48572 5.663104,-1.38295 -2.699829,18.33724 -2.699829,18.33724 z"
         id="path965-9-5"
         inkscape:connector-curvature="0"
         sodipodi:nodetypes="csscc" />
      <path
         style="fill:#ffdd55;stroke:#000000;stroke-width:0.96499997;stroke-linecap:butt;stroke-linejoin:miter;stroke-miterlimit:4;stroke-dasharray:none;stroke-opacity:1"
         d="m 28.596597,171.18794 c 0,0 -8.957367,-15.27545 -4.298128,-17.27891 2.191382,-0.94229 10.000723,13.46566 11.339286,10.78853 z"
         id="path967-5-1"
         inkscape:connector-curvature="0"
         sodipodi:nodetypes="cscc" />
      <path
         style="fill:#ffaaaa;stroke:#000000;stroke-width:0.96499997;stroke-linecap:butt;stroke-linejoin:miter;stroke-miterlimit:4;stroke-dasharray:none;stroke-opacity:1"
         d="m 43.737244,186.85775 9.719389,-0.0108 -5.399662,7.55952 z"
         id="path969-3-8"
         inkscape:connector-curvature="0"
         sodipodi:nodetypes="cccc" />
      <ellipse
         style="opacity:1;fill:#0000ff;fill-opacity:1;stroke:#000000;stroke-width:1.39999998;stroke-miterlimit:4;stroke-dasharray:none;stroke-opacity:1"
         id="path983-6-7"
         cx="42.07415"
         cy="178.86414"
         rx="1.079932"
         ry="1.7473667" />
      <ellipse
         style="opacity:1;fill:#0000ff;fill-opacity:1;stroke:#000000;stroke-width:1.39999998;stroke-miterlimit:4;stroke-dasharray:none;stroke-opacity:1"
         id="path983-0-0-9"
         cx="53.47823"
         cy="178.72585"
         rx="1.079932"
         ry="1.7473667" />
    </g>
    <path
       inkscape:connector-curvature="0"
       id="path1177-0-8"
       d="m 39.351463,174.89021 22.547049,13.42265 -7.297393,3.93732 z"
       style="fill:#000000;stroke:#000000;stroke-width:0.41599199px;stroke-linecap:butt;stroke-linejoin:miter;stroke-opacity:1" />
    <path
       sodipodi:nodetypes="cccc"
       inkscape:connector-curvature="0"
       id="path1179-4-7"
       d="m 110.47127,170.05806 -27.633696,15.83873 6.78528,2.7815 z"
       style="fill:#000000;stroke:#000000;stroke-width:0.41599199px;stroke-linecap:butt;stroke-linejoin:miter;stroke-opacity:1" />
    <path
       sodipodi:nodetypes="ccccsscccsccccscccc"
       inkscape:connector-curvature="0"
       id="path946-2-4-5"
       d="m 60.890244,190.35326 c 2.20708,-1.54816 7.968476,-3.80326 11.580483,-4.5327 45.288643,4.67436 29.681423,22.00636 20.806651,12.45787 -0.62621,0.68933 -8.090271,-10.28834 -7.908037,-8.78647 0.223422,1.84042 -1.362446,1.9923 -3.379889,2.31363 -0.629165,0.10037 -1.416331,0.4427 -1.749253,0.76116 -0.550527,0.52652 -0.586635,0.80748 -0.399078,3.10249 0.241735,2.95546 -0.04257,3.7614 -1.321173,3.7614 -1.066445,0 -2.213354,-1.17589 -2.754166,-2.82377 -0.514422,-1.56747 -1.412194,-2.2462 -3.299417,-2.49445 -1.623468,-0.21369 -2.578539,-0.93965 -3.917459,-2.97819 -0.907031,-1.38097 -2.184266,-1.85562 -3.826279,-1.42198 -1.952077,0.51553 -2.780228,1.91945 -2.780228,4.71301 0,0.95769 -0.141155,1.31996 -0.607368,1.55861 -0.334291,0.17088 -0.73362,0.23613 -0.887938,0.14516 -0.52,-0.30747 -1.788015,0.1917 -1.983442,0.78071 -0.116822,0.35235 0.08185,1.14764 0.500984,2.00325 0.783767,1.60061 0.571314,2.38653 -0.645112,2.38653 -6.252938,-7.99207 -16.927293,2.47098 2.570721,-10.94626 z"
       style="fill:#000000;stroke-width:0.29396683" />
    <path
       inkscape:connector-curvature="0"
       id="path1201-0-8"
       d="m 79.615663,187.58209 c 0,0 -5.593433,0.57322 0,0 z"
       style="fill:none;stroke:#000000;stroke-width:0.41599199px;stroke-linecap:butt;stroke-linejoin:miter;stroke-opacity:1" />
    <path
       sodipodi:nodetypes="ccsscccccc"
       inkscape:connector-curvature="0"
       id="path946-73-1-0"
       d="m 112.76926,228.69811 c -0.79506,-0.50559 -1.07161,-0.52224 -2.60548,-0.15673 -1.87959,0.44798 -1.81886,0.48284 -2.41082,-1.38965 -0.18465,-0.58395 -0.64069,-1.28673 -1.01358,-1.56165 -0.61656,-0.45469 -0.91251,-0.45292 -3.26804,0.0194 -3.03341,0.60842 -3.905516,0.44205 -4.069526,-0.77078 -0.136806,-1.0116 0.935336,-2.25037 2.574596,-2.97476 1.55925,-0.68902 2.14786,-1.6277 2.16315,-3.44973 2.46268,-3.57916 6.82327,0.14547 8.59815,-1.05902 z"
       style="fill:#000000;stroke-width:0.29396683" />
    <path
       sodipodi:nodetypes="ccsscccccc"
       inkscape:connector-curvature="0"
       id="path946-6-4-5"
       d="m 39.555535,217.5361 c 0.825597,0.45866 1.102683,0.45926 2.610652,0.007 1.847801,-0.55595 1.784977,-0.58722 2.494316,1.24757 0.221253,0.57221 0.720916,1.24729 1.11054,1.50016 0.64417,0.41816 0.939472,0.39925 3.260833,-0.20851 2.989369,-0.78289 3.870404,-0.66732 4.110857,0.5338 0.200548,1.00185 -0.791245,2.30041 -2.381684,3.11833 -1.512816,0.77804 -2.040963,1.74905 -1.940984,3.56863 -2.231702,3.71514 -6.819982,0.24972 -8.515404,1.55474 z"
       style="fill:#000000;stroke-width:0.29396683" />
    <path
       sodipodi:nodetypes="cc"
       inkscape:connector-curvature="0"
       id="path1336-8-5"
       d="m 68.06149,211.68473 4.113319,14.4228"
       style="fill:none;stroke:#000000;stroke-width:0.41599199px;stroke-linecap:butt;stroke-linejoin:miter;stroke-opacity:1" />
    <path
       sodipodi:nodetypes="cc"
       inkscape:connector-curvature="0"
       id="path1336-5-0-7"
       d="m 84.537287,211.66812 -4.393672,14.42281"
       style="fill:none;stroke:#000000;stroke-width:0.41599199px;stroke-linecap:butt;stroke-linejoin:miter;stroke-opacity:1" />
    <path
       sodipodi:nodetypes="cc"
       inkscape:connector-curvature="0"
       id="path1336-5-2-2-8"
       d="m 90.375486,238.41901 -9.024317,-1.01283"
       style="fill:none;stroke:#000000;stroke-width:0.20441359px;stroke-linecap:butt;stroke-linejoin:miter;stroke-opacity:1" />
    <path
       sodipodi:nodetypes="cc"
       inkscape:connector-curvature="0"
       id="path1336-5-2-6-4-1"
       d="m 88.778279,241.30735 -7.413045,-2.56287"
       style="fill:none;stroke:#000000;stroke-width:0.17407772px;stroke-linecap:butt;stroke-linejoin:miter;stroke-opacity:1" />
    <path
       sodipodi:nodetypes="cc"
       inkscape:connector-curvature="0"
       id="path1336-5-2-6-3-2-3"
       d="m 89.998902,234.81916 -8.647733,1.77333"
       style="fill:#ffeeaa;stroke:#000000;stroke-width:0.18203516px;stroke-linecap:butt;stroke-linejoin:miter;stroke-opacity:1" />
    <path
       sodipodi:nodetypes="cc"
       inkscape:connector-curvature="0"
       id="path1336-5-2-6-3-0-2-7"
       d="M 71.094875,236.44071 65.473154,234.3958"
       style="fill:none;stroke:#000000;stroke-width:0.15702987px;stroke-linecap:butt;stroke-linejoin:miter;stroke-opacity:1" />
    <path
       sodipodi:nodetypes="cc"
       inkscape:connector-curvature="0"
       id="path1336-5-2-6-3-0-0-0-5-5"
       d="m 70.794662,237.62939 -9.248605,-0.10935"
       style="fill:none;stroke:#000000;stroke-width:0.18920188px;stroke-linecap:butt;stroke-linejoin:miter;stroke-opacity:1" />
    <path
       sodipodi:nodetypes="cc"
       inkscape:connector-curvature="0"
       id="path1336-5-2-6-3-0-0-0-3-9-1"
       d="m 71.385816,238.56945 -9.024587,1.93832"
       style="fill:#ffeeaa;stroke:#000000;stroke-width:0.18920188px;stroke-linecap:butt;stroke-linejoin:miter;stroke-opacity:1" />
    <ellipse
       ry="3.6225479"
       rx="3.7873631"
       transform="scale(-1,1)"
       style="opacity:1;fill:#000000;fill-opacity:1;stroke:#000000;stroke-width:1.51722455;stroke-miterlimit:4;stroke-dasharray:none;stroke-opacity:1"
       id="path1053-5-1"
       cx="-24.040327"
       cy="217.35661" />
    <path
       style="fill:none;stroke:#000000;stroke-width:1.51722455;stroke-linecap:butt;stroke-linejoin:miter;stroke-miterlimit:4;stroke-dasharray:none;stroke-opacity:1"
       d="M 55.202371,265.63118 C 30.843891,248.65963 29.450293,234.52572 27.816819,218.81671"
       id="path1008-4-1-8"
       inkscape:connector-curvature="0"
       sodipodi:nodetypes="cc" />
    <ellipse
       ry="3.6225479"
       rx="3.7873631"
       cy="217.10956"
       cx="131.89334"
       id="path1053-5-2-5"
       style="opacity:1;fill:#000000;fill-opacity:1;stroke:#000000;stroke-width:1.51722455;stroke-miterlimit:4;stroke-dasharray:none;stroke-opacity:1" />
    <path
       style="fill:#deaa87;stroke:#000000;stroke-width:0.86218214;stroke-linecap:butt;stroke-linejoin:miter;stroke-miterlimit:4;stroke-dasharray:none;stroke-opacity:1"
       d="m 66.112059,277.20107 c -6.096407,-1.74502 -1.811406,-21.90942 -1.811406,-21.90942 l 21.771944,0.88209 c 0,0 8.519661,18.74621 2.713639,20.13163 -6.866858,1.63855 -13.626159,3.48561 -22.674177,0.8957 z"
       id="path1183-4-1"
       inkscape:connector-curvature="0"
       sodipodi:nodetypes="sccss" />
    <path
       style="fill:none;stroke:#000000;stroke-width:1.0018909;stroke-linecap:butt;stroke-linejoin:miter;stroke-miterlimit:4;stroke-dasharray:none;stroke-opacity:1"
       d="m 60.944176,210.47802 c 4.50661,-0.41837 9.653774,-0.47069 9.926027,-3.30869"
       id="path1270"
       inkscape:connector-curvature="0"
       sodipodi:nodetypes="cc" />
    <path
       style="fill:none;stroke:#000000;stroke-width:1.0018909;stroke-linecap:butt;stroke-linejoin:miter;stroke-miterlimit:4;stroke-dasharray:none;stroke-opacity:1"
       d="m 75.845972,245.91206 c 2.238723,-2.1729 5.804133,-3.01907 9.92608,-3.30869"
       id="path1270-4"
       inkscape:connector-curvature="0"
       sodipodi:nodetypes="cc" />
    <path
       style="fill:none;stroke:#000000;stroke-width:1.0018909;stroke-linecap:butt;stroke-linejoin:miter;stroke-miterlimit:4;stroke-dasharray:none;stroke-opacity:1"
       d="m 92.06745,207.93839 c -2.593839,-3.24748 -6.076945,-3.82713 -9.926083,-3.3087"
       id="path1270-4-5"
       inkscape:connector-curvature="0"
       sodipodi:nodetypes="cc" />
    <path
       style="fill:none;stroke:#000000;stroke-width:0.25702929;stroke-linecap:butt;stroke-linejoin:miter;stroke-miterlimit:4;stroke-dasharray:none;stroke-opacity:1"
       d="m 82.901748,247.39142 c 0.491634,-0.57077 1.213804,-0.94701 1.998781,-1.06823"
       id="path1270-4-7"
       inkscape:connector-curvature="0"
       sodipodi:nodetypes="cc"
       inkscape:transform-center-x="0.66143185"
       inkscape:transform-center-y="0.22369336" />
    <path
       style="fill:#f9f9f9;fill-opacity:1;stroke:#000000;stroke-width:2.3568573;stroke-linecap:butt;stroke-linejoin:miter;stroke-miterlimit:4;stroke-dasharray:none;stroke-opacity:1"
       d="m 140.76157,164.93184 c 0,0 22.82743,-19.35643 24.07949,-24.12483 10.50341,-59.817244 129.49167,-40.820588 123.17638,-4.53819 -1.29073,29.8342 -114.06524,32.38773 -115.92072,14.71504 -1.32557,-4.18428 -31.33515,13.94798 -31.33515,13.94798 z"
       id="path94-9"
       inkscape:connector-curvature="0"
       sodipodi:nodetypes="ccccc" />
    <text
       xml:space="preserve"
       style="font-style:normal;font-variant:normal;font-weight:normal;font-stretch:normal;font-size:13.43189144px;line-height:1.25;font-family:'Berlin Sans FB';-inkscape-font-specification:'Berlin Sans FB';letter-spacing:0px;word-spacing:0px;display:inline;fill:#000000;fill-opacity:1;stroke:none;stroke-width:0.33579725"
       x="164.5388"
       y="145.70406"
       id="text4963-6"
       transform="scale(1.0524482,0.95016552)"><tspan
         sodipodi:role="line"
         x="164.5388"
         y="145.70406"
         style="font-style:normal;font-variant:normal;font-weight:bold;font-stretch:normal;font-size:15.06927776px;font-family:'Tw Cen MT';-inkscape-font-specification:'Tw Cen MT Bold';stroke-width:0.33579725"
         id="tspan1573-0">¿Que hacemos?</tspan></text>
  </g>
</svg>
